<svg width="19" height="14" viewBox="0 0 19 14" fill="none" xmlns="http://www.w3.org/2000/svg">
<path d="M1.72727 0C1.26917 0 0.829833 0.184374 0.505907 0.512563C0.18198 0.840752 0 1.28587 0 1.75V11.375H1.72727C1.72727 12.0712 2.00024 12.7389 2.48613 13.2312C2.97202 13.7234 3.63103 14 4.31818 14C5.00533 14 5.66434 13.7234 6.15023 13.2312C6.63612 12.7389 6.90909 12.0712 6.90909 11.375H12.0909C12.0909 12.0712 12.3639 12.7389 12.8498 13.2312C13.3357 13.7234 13.9947 14 14.6818 14C15.369 14 16.028 13.7234 16.5139 13.2312C16.9998 12.7389 17.2727 12.0712 17.2727 11.375H19V7L16.4091 3.5H13.8182V0M7.77273 1.75L11.2273 5.25L7.77273 8.75V6.125H2.59091V4.375H7.77273M13.8182 4.8125H15.9773L17.6786 7H13.8182M4.31818 10.0625C4.66176 10.0625 4.99126 10.2008 5.23421 10.4469C5.47715 10.6931 5.61364 11.0269 5.61364 11.375C5.61364 11.7231 5.47715 12.0569 5.23421 12.3031C4.99126 12.5492 4.66176 12.6875 4.31818 12.6875C3.97461 12.6875 3.6451 12.5492 3.40216 12.3031C3.15921 12.0569 3.02273 11.7231 3.02273 11.375C3.02273 11.0269 3.15921 10.6931 3.40216 10.4469C3.6451 10.2008 3.97461 10.0625 4.31818 10.0625ZM14.6818 10.0625C15.0254 10.0625 15.3549 10.2008 15.5978 10.4469C15.8408 10.6931 15.9773 11.0269 15.9773 11.375C15.9773 11.7231 15.8408 12.0569 15.5978 12.3031C15.3549 12.5492 15.0254 12.6875 14.6818 12.6875C14.3382 12.6875 14.0087 12.5492 13.7658 12.3031C13.5228 12.0569 13.3864 11.7231 13.3864 11.375C13.3864 11.0269 13.5228 10.6931 13.7658 10.4469C14.0087 10.2008 14.3382 10.0625 14.6818 10.0625Z" fill="white"/>
</svg>
