<svg width="22" height="20" viewBox="0 0 22 20" fill="none" xmlns="http://www.w3.org/2000/svg">
<path d="M0.340507 3.26176C0.340507 3.16461 0.340507 3.06745 0.340507 2.9703C0.44771 2.68554 0.668815 2.55154 0.946872 2.46109C3.34888 1.67047 5.74753 0.873152 8.14954 0.0758334C8.6219 -0.0816202 8.83965 -0.00456823 9.11771 0.414191C9.70732 1.29861 10.2969 2.17968 10.8798 3.0641C10.977 3.21151 11.0206 3.21821 11.1211 3.0641C11.7006 2.18303 12.2869 1.30866 12.8731 0.430942C13.168 -0.0112684 13.3723 -0.0849699 13.8715 0.0825339C16.2802 0.879852 18.6855 1.67717 21.0942 2.47449C21.6872 2.67214 21.8212 3.07415 21.4694 3.59677C20.7659 4.63529 20.0624 5.67716 19.3522 6.71234C19.2718 6.82959 19.2751 6.90329 19.3555 7.01719C20.0691 8.05907 20.776 9.10429 21.4828 10.1495C21.8178 10.6453 21.6805 11.0574 21.111 11.245C20.518 11.4426 19.9284 11.647 19.3354 11.8279C19.1612 11.8815 19.121 11.9653 19.121 12.1328C19.1277 13.6671 19.1244 15.2014 19.1244 16.7358C19.1244 17.2148 18.9971 17.3924 18.5381 17.5431C16.1462 18.3405 13.7542 19.1344 11.3623 19.9384C11.1144 20.0222 10.8832 20.0188 10.6319 19.9384C8.23999 19.1378 5.84803 18.3405 3.45608 17.5431C3.00382 17.3924 2.87652 17.2148 2.87652 16.7324C2.87652 15.1847 2.87317 13.6369 2.87987 12.0892C2.87987 11.9452 2.83631 11.8849 2.70231 11.8413C2.11605 11.6537 1.53313 11.446 0.943521 11.2651C0.662115 11.178 0.444361 11.0373 0.337158 10.7559C0.337158 10.6587 0.337158 10.5616 0.337158 10.4644C0.437661 10.3003 0.534812 10.1328 0.642014 9.97196C1.30868 8.98369 1.97535 7.99542 2.64871 7.01384C2.72911 6.89659 2.72911 6.82289 2.64871 6.70898C2.1127 5.93177 1.58674 5.1512 1.06077 4.37063C0.816218 4.00547 0.548212 3.65372 0.340507 3.26176ZM10.3773 11.5063C10.3639 11.4996 10.3472 11.4962 10.3338 11.4895C9.92843 12.0993 9.51972 12.709 9.11436 13.3187C8.83965 13.7307 8.61855 13.8044 8.14284 13.647C6.87316 13.2249 5.60348 12.8095 4.3405 12.3807C4.1596 12.3204 4.12609 12.3539 4.12609 12.5381C4.13279 13.781 4.13279 15.0205 4.12609 16.2634C4.12609 16.4075 4.16965 16.4644 4.30365 16.508C6.25674 17.1545 8.20649 17.8044 10.1529 18.4611C10.3304 18.5214 10.3807 18.5147 10.3807 18.3036C10.374 16.0992 10.3773 13.8916 10.3773 11.6872C10.3773 11.6302 10.3773 11.5699 10.3773 11.5063ZM11.637 18.5214C11.6939 18.508 11.7408 18.4979 11.7877 18.4812C13.7643 17.8245 15.7408 17.1646 17.7207 16.5113C17.8547 16.4678 17.8782 16.4008 17.8782 16.2735C17.8748 15.044 17.8748 13.8178 17.8748 12.5884C17.8748 12.3204 17.8748 12.3204 17.6303 12.4041C16.374 12.8195 15.121 13.2349 13.8648 13.6537C13.3857 13.8111 13.168 13.7408 12.8932 13.3287C12.5214 12.7693 12.1462 12.2098 11.7743 11.6503C11.7375 11.5967 11.6973 11.5465 11.6403 11.4694C11.637 13.8413 11.637 16.173 11.637 18.5214ZM10.0021 3.99542C9.97533 3.95522 9.95188 3.91502 9.92508 3.87482C9.39912 3.0842 8.8698 2.29694 8.34719 1.50297C8.27014 1.38571 8.20314 1.37566 8.07583 1.41922C6.09259 2.07918 4.10599 2.7358 2.1194 3.38906C1.97535 3.43596 1.95525 3.47616 2.0457 3.60681C2.58506 4.39073 3.11772 5.17465 3.64368 5.96527C3.73079 6.09257 3.80114 6.11267 3.94519 6.06577C5.09762 5.67381 6.25674 5.2919 7.41252 4.90664C8.22659 4.63529 9.04066 4.36728 9.85472 4.09258C9.90498 4.07248 9.98203 4.07917 10.0021 3.99542ZM13.8246 1.38236C13.7241 1.36561 13.7073 1.43932 13.6738 1.48622C13.1378 2.28689 12.6051 3.0909 12.0658 3.88822C11.9887 4.00212 12.0021 4.04232 12.1294 4.08588C14.1194 4.74584 16.1093 5.40916 18.0993 6.07582C18.2132 6.11267 18.2701 6.09257 18.3371 5.99542C18.8731 5.19475 19.4125 4.39743 19.9586 3.60346C20.049 3.46946 20.0189 3.43261 19.8815 3.38906C17.8949 2.7358 15.9117 2.07918 13.9251 1.41922C13.8882 1.40581 13.848 1.39241 13.8246 1.38236ZM3.80784 7.62691C3.71738 7.62356 3.70063 7.69726 3.66713 7.74416C3.12442 8.54148 2.58841 9.33879 2.04235 10.1361C1.9586 10.2567 1.97535 10.2969 2.10935 10.3405C4.10264 10.9971 6.09259 11.6537 8.08254 12.3204C8.21989 12.3673 8.27684 12.3338 8.35054 12.2232C8.8698 11.4359 9.39242 10.652 9.91838 9.87146C10.0055 9.7408 10.0155 9.6939 9.84468 9.63695C7.87148 8.98704 5.90163 8.32707 3.93179 7.67381C3.88824 7.65371 3.84469 7.63696 3.80784 7.62691ZM20.039 10.2567C20.0155 10.2199 19.9954 10.1864 19.972 10.1495C19.4225 9.3388 18.8731 8.53143 18.3304 7.72071C18.2567 7.61016 18.1864 7.62691 18.0859 7.66041C16.1093 8.32037 14.1328 8.98034 12.1562 9.6336C12.0189 9.6805 11.9854 9.71735 12.0758 9.85136C12.6085 10.6386 13.1344 11.4292 13.6571 12.2199C13.7308 12.3304 13.7911 12.3572 13.9251 12.3137C14.7324 12.039 15.5398 11.7743 16.3505 11.5063C17.5264 11.1177 18.7023 10.7291 19.8782 10.3371C19.9318 10.3237 19.9988 10.3237 20.039 10.2567ZM5.49963 6.85974C5.57668 6.89324 5.60683 6.90999 5.64033 6.92004C7.38237 7.4996 9.12106 8.07917 10.8631 8.66208C10.967 8.69893 11.0608 8.68888 11.1646 8.65203C12.8731 8.07917 14.5817 7.513 16.2869 6.94014C16.3505 6.92004 16.4209 6.91334 16.4745 6.85639C16.4376 6.83964 16.4075 6.82289 16.3773 6.81284C14.6286 6.22992 12.8832 5.64701 11.1345 5.0641C11.0273 5.02725 10.9368 5.04735 10.8329 5.08085C9.79442 5.42926 8.7559 5.77431 7.72073 6.11937C6.99041 6.36393 6.26009 6.60513 5.49963 6.85974Z" fill="#FE0002" fill-opacity="0.6"/>
</svg>
